<svg viewBox="0 0 6.827 6.827" xml:space="preserve" xmlns="http://www.w3.org/2000/svg" shape-rendering="geometricPrecision" text-rendering="geometricPrecision" image-rendering="optimizeQuality" fill-rule="evenodd" clip-rule="evenodd"><path d="M1.409 4.809a1.857 1.857 0 0 0-.089.568v.556c0 .022.018.04.04.04H5.84a.04.04 0 0 0 .04-.04v-.556c0-.517-.211-.987-.552-1.327-.34-.341-.81-.552-1.327-.552h-.8a1.862 1.862 0 0 0-1.298.523l.023.061a.69.69 0 0 1 .091-.04c.126-.045.26-.039.337.085l.043.068c.098.152.16.267.186.453a.155.155 0 0 1-.002.07c-.043.147-.239.252-.368.304l-.048.019a.697.697 0 0 1-.27.04.642.642 0 0 1-.41-.18c-.013-.011-.007-.003-.022-.022a2.295 2.295 0 0 1-.053-.07zM3.6.853a1.13 1.13 0 0 1 1.133 1.134A1.13 1.13 0 0 1 3.6 3.121a1.13 1.13 0 0 1-1.134-1.134A1.13 1.13 0 0 1 3.6.853z" fill="#fab128" fill-rule="nonzero" class="fill-000000"></path><path d="M1.89 4.197c.085-.058.3-.18.394-.028l.044.069c.079.121.15.23.174.42.002.012.005.026.001.038-.007.028-.054.144-.321.252l-.045.018a.577.577 0 0 1-.599-.123l-.014-.014c-.21-.249-.376-.6-.475-.968A2.598 2.598 0 0 1 .971 2.82a.575.575 0 0 1 .45-.457c.022-.005.05-.008.073-.011.266-.036.367.031.393.055a.045.045 0 0 1 .015.02.92.92 0 0 1 .066.467l-.003.082c-.006.178-.253.18-.356.173.004.108.048.322.105.533.057.212.125.42.175.515z" fill="#fab128" fill-rule="nonzero" class="fill-000000"></path><path d="M0 0h6.827v6.827H0z" fill="none"></path></svg>