<svg data-name="Layer 1" viewBox="0 0 64 64" xmlns="http://www.w3.org/2000/svg"><path d="M7 35h28a2.992 2.992 0 0 0 .958-5.828A14.997 14.997 0 0 0 22 15.052V14a1 1 0 0 0-2 0v1.05a14.997 14.997 0 0 0-13.958 14.12A2.992 2.992 0 0 0 7 35.002Zm14-18a13.009 13.009 0 0 1 12.95 12H8.05A13.009 13.009 0 0 1 21 17ZM7 31h28a1 1 0 0 1 0 2H7a1 1 0 0 1 0-2Zm55.96 19.48c-.198-2.768-1.924-5.057-4.164-5.417l-3.069-12.275A4.992 4.992 0 0 0 50.877 29H42V6a1 1 0 0 0-1-1H1a1 1 0 0 0-1 1v48a1 1 0 0 0 1 1h6.101a5 5 0 0 0 9.798 0H47.1a5 5 0 0 0 9.798 0H61.5a2.494 2.494 0 0 0 1.46-4.52Zm-9.173-17.207L56.22 43H47a1 1 0 0 1-1-1V31h4.877a2.995 2.995 0 0 1 2.91 2.273ZM44 31v11a3.003 3.003 0 0 0 3 3h9.72l.31 1.242A1 1 0 0 0 58 47a3.003 3.003 0 0 1 3 3h-6.03a4.908 4.908 0 0 0-5.94 0H42V31ZM40 7v43H14.97a4.908 4.908 0 0 0-5.94 0H2V7ZM2 52h5.424a4.946 4.946 0 0 0-.323 1H2Zm10 5a3 3 0 1 1 3-3 3.003 3.003 0 0 1-3 3Zm27-4H16.899a4.946 4.946 0 0 0-.323-1h30.848a4.946 4.946 0 0 0-.323 1H39Zm13 4a3 3 0 1 1 3-3 3.003 3.003 0 0 1-3 3Zm9.5-4h-4.601a4.946 4.946 0 0 0-.323-1H61.5a.5.5 0 0 1 0 1Z" fill="#fab128" class="fill-000000"></path></svg>