<svg viewBox="0 0 64 64" xml:space="preserve" xmlns="http://www.w3.org/2000/svg"><g fill="#ffb326" class="fill-241f20"><path d="M55.982 35.444H7.498c-2.206 0-2.572 1.408-2.604 2.229C5.987 52.32 17.693 63.865 32 63.865c14.085 0 25.672-11.178 27.074-25.497l.006-.067c.016-.18.013-.364.025-.546-.084-2.058-2.353-2.292-3.123-2.311zM23.119 16.836c.419.106.854.177 1.302.203v.028l.291.001c.038 0 .072.012.109.012.038 0 .075-.01.113-.012l.823.004v.006l14.46-.002c1.942 0 2.778.521 3.129.87.21.438.338.924.338 1.442a3.352 3.352 0 0 1-1.455 2.762c-.019.016-.044.025-.06.039a3.236 3.236 0 0 1-.363.196c-.782.314-2.002.311-2.002.311H33.42l-9.358-.001s-1.126-.016-2.212.317l-.087.03a4.803 4.803 0 0 0-2.015 1.267l-.038.035c-.016.016-.031.024-.044.04-.016.018-.019.026-.031.044a5.561 5.561 0 0 0-1.694 3.998c0 .367.048.72.125 1.062.088.316.397 1.043 1.452 1.047h.485c1.177-.026 1.477-2.188 1.477-2.188l.009.001c.069-.253.172-.492.313-.707.006-.009.009-.017.019-.028.016-.021.034-.039.05-.061.288-.34 1.099-.962 3.217-.962l14.463.001v-.006l.82-.003c.04.001.075.011.112.011s.075-.011.112-.011l.288-.002v-.028a6.99 6.99 0 0 0 1.305-.203 6.757 6.757 0 0 0 5.423-6.621 6.64 6.64 0 0 0-.635-2.813 5.626 5.626 0 0 0-1.305-1.998c-.013-.018-.016-.026-.031-.044-.013-.016-.028-.025-.044-.041-.013-.011-.025-.021-.038-.034a4.5 4.5 0 0 0-.704-.595 3.273 3.273 0 0 0-.228-.156 5.01 5.01 0 0 0-.539-.285c-1.746-.76-4.103-.577-4.103-.577h-14.48s-1.221.003-2.006-.312c-.122-.061-.248-.12-.36-.195-.019-.014-.044-.023-.06-.039a3.354 3.354 0 0 1 1.899-6.116h8.336c2.882 0 3.401-2.1 3.492-3.062V1.172c0-.881-.642-1.021-.738-1.037-.939.028-2.441.263-2.441 1.513v.734c-.03.377-.259 1.078-1.526 1.078h-7.601a.547.547 0 0 1-.041.001l-.009-.001c-.016 0-.028.005-.044.005-.473.024-.923.066-1.305.131-.006.002-.013.002-.019.003-.269.047-.5.104-.673.176a.568.568 0 0 0-.131.075c-2.66.907-4.584 3.399-4.584 6.364a6.757 6.757 0 0 0 5.426 6.622z"></path></g></svg>