<svg viewBox="0 0 32 32" xml:space="preserve" xmlns="http://www.w3.org/2000/svg" enable-background="new 0 0 32 32"><g id="Musik_icon"><path d="M20 14h-8c-3.86 0-7 3.14-7 7v9c0 .55.45 1 1 1h20c.55 0 1-.45 1-1v-9c0-3.86-3.14-7-7-7zm0 10c0 .13-.03.26-.08.38s-.12.23-.21.33c-.1.09-.21.16-.33.21s-.25.08-.38.08-.26-.03-.38-.08c-.13-.05-.23-.12-.33-.21-.09-.1-.16-.21-.22-.33A.986.986 0 0 1 18 24c0-.26.11-.52.29-.71l.15-.12c.06-.04.12-.07.18-.09.06-.03.12-.05.18-.06.33-.07.68.04.91.27.09.1.16.2.21.33.05.12.08.25.08.38zm-6 0c0 .13-.03.26-.08.38s-.12.23-.21.33c-.1.09-.21.16-.33.21a.995.995 0 0 1-1.09-.21c-.09-.1-.17-.21-.22-.33S12 24.13 12 24c0-.26.11-.52.29-.71.1-.09.2-.16.33-.21.36-.15.81-.07 1.09.21.18.19.29.45.29.71zm-1-4v-4h6v4h-6zm-6 1a5 5 0 0 1 4-4.9v4c-1.16.31-2.05 1.3-2.21 2.54L8.11 29H7v-8zm18 8h-1.11l-.68-6.37A3.012 3.012 0 0 0 21 20.1v-4a5 5 0 0 1 4 4.9v8zM11 3v5c0 2.76 2.24 5 5 5s5-2.24 5-5V3c.55 0 1-.45 1-1s-.45-1-1-1H11c-.55 0-1 .45-1 1s.45 1 1 1zm5 8c-1.65 0-3-1.35-3-3h6c0 1.65-1.35 3-3 3z" fill="#fab128" class="fill-000000"></path></g></svg>